<svg width="16" height="16" viewBox="0 0 16 16" fill="none" xmlns="http://www.w3.org/2000/svg">
<g clip-path="url(#clip0_80_5)">
<path d="M7.11852 1.64543C7.49551 0.941724 8.5045 0.941724 8.88148 1.64543L10.61 4.87203C10.7648 5.16098 11.0514 5.35572 11.377 5.39324L14.1529 5.71309C14.9445 5.80431 15.3167 6.7395 14.8042 7.34967L12.877 9.64422C12.6836 9.87443 12.6041 10.1794 12.6604 10.4747L13.3669 14.1784C13.516 14.9602 12.7365 15.5944 12.0014 15.2895L8.38316 13.7886C8.13785 13.6868 7.86215 13.6868 7.61684 13.7886L4.0028 15.2877C3.26685 15.593 2.48686 14.957 2.63774 14.1747L3.33928 10.5371C3.39582 10.2439 3.31839 9.94077 3.12817 9.71062L1.17341 7.3456C0.668032 6.73416 1.04168 5.8059 1.82973 5.71509L4.62297 5.39324C4.94861 5.35572 5.23519 5.16098 5.38998 4.87203L7.11852 1.64543Z" fill="#FFFF00"/>
</g>
<defs>
<clipPath id="clip0_80_5">
<rect width="16" height="16" fill="white"/>
</clipPath>
</defs>
</svg>
