<svg width="734" height="674" viewBox="0 0 734 674" fill="none" xmlns="http://www.w3.org/2000/svg">
<path d="M377.298 20.3946L473.941 221.191C475.626 224.692 479.107 226.977 482.989 227.13L709.714 236.063C718.122 236.394 721.98 246.687 715.861 252.464L541.189 417.357C538.276 420.107 537.182 424.275 538.368 428.102L607.944 652.536C610.369 660.358 602.423 667.378 594.96 664.007L373.257 563.874C370.549 562.651 367.449 562.633 364.727 563.823L133.765 664.853C126.483 668.038 118.742 661.406 120.773 653.722L180.537 427.6C181.479 424.035 180.482 420.237 177.911 417.595L16.9976 252.224C11.2647 246.332 15.2137 236.434 23.4278 236.106L248.671 227.126C252.464 226.975 255.88 224.788 257.606 221.407L360.276 20.1966C363.848 13.1966 373.89 13.3134 377.298 20.3946Z" fill="#131313" stroke="#CE207A"/>
</svg>
